<svg width="22" height="17" viewBox="0 0 22 17" fill="none" xmlns="http://www.w3.org/2000/svg">
    <path
        d="M18.2701 2.16594C16.9401 1.54594 15.5001 1.09594 14.0001 0.835938C13.9737 0.836313 13.9486 0.847096 13.9301 0.865938C13.7501 1.19594 13.5401 1.62594 13.4001 1.95594C11.8091 1.71609 10.1911 1.71609 8.60012 1.95594C8.46012 1.61594 8.25012 1.19594 8.06012 0.865938C8.05012 0.845938 8.02012 0.835938 7.99012 0.835938C6.49012 1.09594 5.06012 1.54594 3.72012 2.16594C3.71012 2.16594 3.70012 2.17594 3.69012 2.18594C0.970117 6.25594 0.220117 10.2159 0.590117 14.1359C0.590117 14.1559 0.600117 14.1759 0.620117 14.1859C2.42012 15.5059 4.15012 16.3059 5.86012 16.8359C5.89012 16.8459 5.92012 16.8359 5.93012 16.8159C6.33012 16.2659 6.69012 15.6859 7.00012 15.0759C7.02012 15.0359 7.00012 14.9959 6.96012 14.9859C6.39012 14.7659 5.85012 14.5059 5.32012 14.2059C5.28012 14.1859 5.28012 14.1259 5.31012 14.0959C5.42012 14.0159 5.53012 13.9259 5.64012 13.8459C5.66012 13.8259 5.69012 13.8259 5.71012 13.8359C9.15012 15.4059 12.8601 15.4059 16.2601 13.8359C16.2801 13.8259 16.3101 13.8259 16.3301 13.8459C16.4401 13.9359 16.5501 14.0159 16.6601 14.1059C16.7001 14.1359 16.7001 14.1959 16.6501 14.2159C16.1301 14.5259 15.5801 14.7759 15.0101 14.9959C14.9701 15.0059 14.9601 15.0559 14.9701 15.0859C15.2901 15.6959 15.6501 16.2759 16.0401 16.8259C16.0701 16.8359 16.1001 16.8459 16.1301 16.8359C17.8501 16.3059 19.5801 15.5059 21.3801 14.1859C21.4001 14.1759 21.4101 14.1559 21.4101 14.1359C21.8501 9.60594 20.6801 5.67594 18.3101 2.18594C18.3001 2.17594 18.2901 2.16594 18.2701 2.16594ZM7.52012 11.7459C6.49012 11.7459 5.63012 10.7959 5.63012 9.62594C5.63012 8.45594 6.47012 7.50594 7.52012 7.50594C8.58012 7.50594 9.42012 8.46594 9.41012 9.62594C9.41012 10.7959 8.57012 11.7459 7.52012 11.7459ZM14.4901 11.7459C13.4601 11.7459 12.6001 10.7959 12.6001 9.62594C12.6001 8.45594 13.4401 7.50594 14.4901 7.50594C15.5501 7.50594 16.3901 8.46594 16.3801 9.62594C16.3801 10.7959 15.5501 11.7459 14.4901 11.7459Z"
        fill="#E2E8F0" />
</svg>