<svg width="20" height="21" viewBox="0 0 20 21" fill="none" xmlns="http://www.w3.org/2000/svg">
    <path
        d="M10 0.835938C4.48 0.835938 0 5.31594 0 10.8359C0 16.3559 4.48 20.8359 10 20.8359C15.52 20.8359 20 16.3559 20 10.8359C20 5.31594 15.52 0.835938 10 0.835938ZM14.64 7.63594C14.49 9.21594 13.84 13.0559 13.51 14.8259C13.37 15.5759 13.09 15.8259 12.83 15.8559C12.25 15.9059 11.81 15.4759 11.25 15.1059C10.37 14.5259 9.87 14.1659 9.02 13.6059C8.03 12.9559 8.67 12.5959 9.24 12.0159C9.39 11.8659 11.95 9.53594 12 9.32594C12.0069 9.29413 12.006 9.26111 11.9973 9.22974C11.9886 9.19837 11.9724 9.16961 11.95 9.14594C11.89 9.09594 11.81 9.11594 11.74 9.12594C11.65 9.14594 10.25 10.0759 7.52 11.9159C7.12 12.1859 6.76 12.3259 6.44 12.3159C6.08 12.3059 5.4 12.1159 4.89 11.9459C4.26 11.7459 3.77 11.6359 3.81 11.2859C3.83 11.1059 4.08 10.9259 4.55 10.7359C7.47 9.46594 9.41 8.62594 10.38 8.22594C13.16 7.06594 13.73 6.86594 14.11 6.86594C14.19 6.86594 14.38 6.88594 14.5 6.98594C14.6 7.06594 14.63 7.17594 14.64 7.25594C14.63 7.31594 14.65 7.49594 14.64 7.63594Z"
        fill="#E2E8F0" />
</svg>