<svg width="705" height="773" viewBox="0 0 705 773" fill="none" xmlns="http://www.w3.org/2000/svg">
<path d="M611 252.11C471.426 252.11 358.4 139.189 358.4 0H348.601V252.11H96V261.89C235.574 261.89 348.601 374.811 348.601 514H358.4V261.89H611V252.11Z" fill="#F50DB4"/>
<path d="M66.368 725.342C34.3552 725.342 14.8352 707.189 14.8352 673.81V588.702H35.136V672.638C35.136 694.306 45.2864 708.36 66.368 708.36C89.2064 708.36 97.6 694.306 97.6 672.638V588.702H117.901V673.81C117.901 707.189 98.3808 725.342 66.368 725.342ZM135.663 723V626.571H154.792V640.235H154.987C160.453 631.842 171.189 624.229 185.829 624.229C207.301 624.229 219.989 637.112 219.989 660.536V723H200.664V668.93C200.664 651.557 196.76 640.43 180.559 640.43C164.357 640.43 154.987 653.509 154.987 669.125V723H135.663ZM237.845 723V626.571H257.17V723H237.845ZM237.845 611.541V588.702H257.17V611.541H237.845ZM317.36 725.342C289.056 725.342 269.927 704.846 269.927 674.59C269.927 644.92 289.056 624.229 317.555 624.229C342.541 624.229 356.4 638.869 361.475 657.022L341.955 661.707C339.418 649.605 332 639.65 317.555 639.65C302.135 639.65 290.227 651.947 290.227 674.59C290.227 697.624 301.744 709.922 317.946 709.922C331.415 709.922 339.808 701.528 342.931 687.864L362.256 692.549C356.4 710.702 342.931 725.342 317.36 725.342ZM372.632 723V588.702H391.957V640.04H392.152C398.203 630.67 408.159 624.229 422.799 624.229C444.271 624.229 456.959 637.112 456.959 660.536V723H437.634V668.93C437.634 651.557 433.73 640.43 417.528 640.43C401.327 640.43 391.957 653.509 391.957 669.125V723H372.632ZM502.924 725.342C485.551 725.342 469.935 714.802 469.935 696.843C469.935 679.275 482.233 671.272 503.119 667.173L516.393 664.44C526.738 662.293 531.618 660.146 531.618 652.142C531.618 644.139 524.981 638.478 513.269 638.478C500.581 638.478 492.383 646.286 491.602 659.17L471.692 657.413C473.058 636.722 489.65 624.229 513.465 624.229C538.06 624.229 551.138 636.136 551.138 656.437V723H532.594V711.678H532.399C527.909 719.096 517.954 725.342 502.924 725.342ZM507.999 711.483C521.663 711.483 532.399 702.504 532.399 686.498V674.786C512.098 678.104 502.533 680.837 496.677 684.546C492.188 687.278 489.65 691.182 489.65 696.453C489.65 705.432 497.068 711.483 507.999 711.483ZM569.182 723V626.571H588.507V723H569.182ZM569.182 611.541V588.702H588.507V611.541H569.182ZM607.315 723V626.571H626.444V640.235H626.639C632.105 631.842 642.841 624.229 657.481 624.229C678.953 624.229 691.641 637.112 691.641 660.536V723H672.316V668.93C672.316 651.557 668.412 640.43 652.211 640.43C636.009 640.43 626.639 653.509 626.639 669.125V723H607.315Z" fill="#F50DB4"/>
</svg>
